
<svg width="19px" height="23px" viewBox="0 0 19 23" version="1.1" xmlns="http://www.w3.org/2000/svg" xmlns:xlink="http://www.w3.org/1999/xlink">
    <g id="Page-1" stroke="none" stroke-width="1" fill="none" fill-rule="evenodd">
        <g id="join-in-page" transform="translate(-736.000000, -760.000000)" fill="#FFFFFF">
            <g id="apple" transform="translate(703.000000, 733.000000)">
                <g id="Fill-1" transform="translate(30.000000, 26.000000)">
                    <path d="M12.0109244,6.96884424 C11.8177533,3.83267184 14.2145055,1.25291713 16.9713667,1 C17.3505543,4.61671494 13.8710902,7.32292823 12.0109244,6.96884424 L12.0109244,6.96884424 Z M18.823323,23.1030828 C17.6013507,24.2755363 16.253123,24.0927396 14.968023,23.5399806 C13.6017587,22.9760322 12.3527317,22.9403689 10.9098124,23.5399806 C9.11292696,24.3067194 8.15924749,24.0838238 7.07705801,23.1030828 C0.967196578,16.8842932 1.86902114,7.41122665 8.8130703,7.05459356 C10.4972277,7.14375183 11.6763633,7.97515273 12.6683703,8.04425039 C14.1428535,7.74779913 15.5542089,6.89856658 17.1324019,7.01001442 C19.0284881,7.16158348 20.4466072,7.90159715 21.393523,9.23228438 C17.4931317,11.5503995 18.4175019,16.6324211 22,18.0589534 C21.2830495,19.9201324 20.3631884,21.7590218 18.8210684,23.1186855 L18.823323,23.1030828 Z"></path>
                </g>
            </g>
        </g>
    </g>
</svg>